<?xml version="1.0" standalone="no"?>
<!DOCTYPE svg PUBLIC "-//W3C//DTD SVG 20010904//EN"
 "http://www.w3.org/TR/2001/REC-SVG-20010904/DTD/svg10.dtd">
<svg version="1.0" xmlns="http://www.w3.org/2000/svg"
 width="500.000000pt" height="500.000000pt" viewBox="0 0 500.000000 500.000000"
 preserveAspectRatio="xMidYMid meet">

<g transform="translate(0.000000,500.000000) scale(0.100000,-0.100000)"
fill="#000000" stroke="none">
<path d="M0 2500 l0 -2500 2500 0 2500 0 0 2500 0 2500 -2500 0 -2500 0 0
-2500z m954 1540 c59 -9 64 -13 145 -93 22 -22 31 -67 31 -167 0 -102 -12
-135 -65 -187 -60 -57 -78 -63 -185 -63 l-88 0 -54 45 c-30 24 -69 66 -86 94
-28 43 -32 57 -32 118 0 79 14 105 107 199 43 45 58 53 95 57 23 2 50 4 58 5
8 1 42 -2 74 -8z m1456 -695 c177 -84 237 -123 255 -168 8 -20 15 -43 15 -50
0 -7 -58 -70 -129 -140 -118 -117 -131 -127 -157 -122 -44 10 -84 27 -84 35 0
4 -15 15 -34 24 -25 12 -63 16 -141 16 -119 0 -139 -7 -217 -73 -40 -34 -51
-51 -74 -119 -28 -86 -29 -119 -2 -235 18 -77 79 -142 168 -178 92 -37 159
-43 207 -18 21 11 61 28 89 37 29 9 60 26 69 36 10 11 24 20 31 20 8 0 70 -55
138 -122 92 -91 127 -133 136 -162 12 -38 11 -41 -11 -55 -12 -9 -41 -31 -62
-48 -21 -18 -43 -33 -48 -33 -4 0 -23 -13 -41 -29 -34 -29 -74 -45 -143 -56
-22 -3 -72 -17 -112 -31 -96 -32 -190 -32 -286 0 -40 14 -98 29 -129 35 -32 6
-71 18 -88 28 -100 57 -121 71 -161 102 -24 19 -62 57 -84 83 -22 26 -51 61
-66 78 -14 17 -31 47 -38 68 -8 20 -22 49 -33 64 -11 15 -23 54 -28 85 -24
154 -32 233 -26 264 3 19 11 70 16 114 13 99 16 108 44 143 12 15 30 48 39 73
12 31 43 71 100 128 78 78 205 171 234 171 8 0 46 16 86 35 l72 35 210 0 210
0 75 -35z m-1317 6 c9 -7 21 -30 27 -50 12 -43 13 -1433 1 -1557 -12 -123 -66
-228 -171 -332 -58 -57 -92 -82 -123 -92 -23 -7 -62 -24 -87 -39 -44 -25 -50
-26 -206 -26 -157 0 -161 1 -201 27 -22 14 -60 32 -83 38 -27 7 -65 31 -101
63 -57 49 -58 52 -52 90 6 39 56 96 211 240 l43 40 56 -29 c43 -21 70 -28 110
-28 67 1 86 17 107 93 14 50 16 144 16 775 0 774 -1 752 52 791 20 14 50 16
204 13 134 -2 185 -7 197 -17z m2130 1 c9 -8 23 -35 32 -62 9 -27 25 -59 35
-72 10 -13 26 -60 35 -104 9 -43 27 -97 39 -119 13 -22 29 -71 35 -110 7 -38
23 -89 37 -112 13 -23 30 -72 38 -108 8 -37 21 -74 29 -82 14 -14 17 -12 30
13 8 16 20 52 26 79 7 28 21 64 32 82 11 17 27 64 35 103 8 40 26 95 40 122
14 28 29 75 34 105 5 31 20 77 33 102 13 25 32 70 41 99 10 30 27 57 39 65 30
17 431 17 448 0 6 -6 14 -31 16 -56 5 -38 0 -55 -30 -108 -19 -35 -37 -80 -41
-99 -4 -19 -17 -50 -29 -70 -13 -19 -29 -55 -36 -80 -7 -25 -23 -61 -36 -81
-13 -20 -30 -60 -39 -89 -9 -29 -27 -72 -40 -95 -14 -23 -30 -64 -37 -91 -7
-27 -23 -65 -35 -84 -12 -19 -28 -55 -34 -80 -6 -25 -23 -64 -37 -88 -13 -24
-33 -68 -43 -98 -11 -30 -28 -67 -39 -83 -11 -15 -25 -50 -32 -77 -6 -27 -22
-65 -34 -84 -13 -19 -29 -55 -35 -80 -6 -25 -24 -70 -40 -100 -15 -30 -33 -75
-40 -100 -6 -25 -23 -62 -37 -82 -14 -20 -29 -56 -34 -79 -6 -23 -20 -56 -32
-73 -12 -16 -31 -57 -42 -90 -19 -56 -23 -62 -60 -73 -24 -7 -113 -12 -222
-12 -170 -1 -184 0 -203 19 -27 27 -25 51 10 106 16 26 33 62 36 80 3 18 21
57 40 86 19 29 34 60 34 69 0 10 15 46 34 81 18 35 37 78 41 96 3 18 18 46 32
63 51 60 52 146 3 234 -16 28 -32 67 -35 88 -4 21 -18 53 -31 72 -13 19 -31
61 -40 93 -9 31 -29 80 -44 107 -16 28 -32 67 -35 88 -4 21 -18 53 -30 71 -13
19 -31 60 -40 92 -9 32 -27 79 -40 104 -12 25 -30 70 -39 101 -8 31 -24 67
-34 80 -10 13 -24 47 -31 74 -7 28 -25 74 -42 102 -30 55 -35 85 -20 127 13
32 28 34 257 33 142 -2 195 -5 207 -15z m1439 -954 c27 -15 100 -92 116 -123
17 -33 25 -112 17 -180 -6 -57 -12 -72 -47 -113 -67 -79 -164 -105 -284 -76
-67 15 -77 21 -116 67 -36 43 -44 62 -54 121 -10 59 -10 82 2 136 13 59 20 70
72 118 31 29 66 55 77 57 11 2 29 6 40 9 35 8 153 -2 177 -16z"/>
</g>
</svg>
