<svg
  width="100"
  height="100"
  viewBox="0 0 128 128"
  fill="none"
  xmlns="http://www.w3.org/2000/svg"
>
  <path
    fill="#64dd50"
    d="M107.914 102.106L106.047 100.461C104.278 98.3274 102.002 96.4528 99.6134 94.8964C97.7087 93.6544 93.4326 91.9768 92.6376 89.9641L92.4913 89.8377C93.8422 89.699 95.4194 89.2556 96.6661 88.9516C98.7599 88.4421 100.488 88.5737 102.651 88.0668C103.626 87.814 104.72 87.5605 105.433 87.3077V86.8021C104.72 85.7837 103.701 84.4354 102.509 83.5137C99.3915 81.1023 96.0574 78.6929 92.5534 76.6834C90.6101 75.5697 88.2422 74.8457 86.1834 73.9012C85.4904 73.583 84.2908 73.4177 83.8326 72.8887C82.75 71.6364 82.1713 70.0482 81.3363 68.5891C79.5886 65.5314 77.8759 62.1924 76.3273 58.9753C75.2711 56.7818 74.5838 54.6193 73.2664 52.6513C66.9436 43.2087 60.139 37.5102 49.597 31.9083C47.3526 30.7169 44.6522 30.2469 41.7976 29.6311C40.2675 29.5475 38.7354 29.4625 37.2039 29.3776C36.2683 29.0237 35.2956 27.9846 34.4192 27.4803C30.9252 25.476 21.9669 21.1167 19.3799 26.8483C17.7464 30.466 21.8206 33.9949 23.2778 35.8287C24.3019 37.1135 25.6114 38.5558 26.3415 40.0019C26.8232 40.9529 26.9053 41.9064 27.3171 42.9118C28.329 45.3893 29.2089 48.0846 30.5192 50.3735C31.1807 51.5325 31.9101 52.7524 32.7472 53.7883C33.2596 54.4242 34.1388 54.7042 34.2779 55.6856C33.4187 56.7785 33.3695 58.4756 32.8863 59.8601C30.7097 66.0928 31.5318 73.8403 34.6968 78.453C35.6674 79.87 37.9553 82.9069 41.1018 81.7414C43.8536 80.7237 43.404 77.5682 44.1912 74.7848C44.3689 74.1547 44.0591 73.6906 44.7728 73.2673V73.3937C45.503 74.9324 46.284 76.4508 47.115 77.9468C48.9704 80.6609 52.0313 83.4968 54.8209 85.4104C56.2674 86.4028 57.6184 88.118 59.0457 88.6988V88.6333H59.2034C58.8416 87.9851 58.2742 87.8768 57.8118 87.4639C56.722 86.4942 55.5096 85.2716 54.6096 84.16C52.0719 81.031 49.8297 77.5987 47.7865 74.0335C46.8102 72.3312 45.9617 70.4495 45.1396 68.7174C44.8235 68.0498 44.827 67.0372 44.1662 66.6917C43.2649 67.9609 41.9382 68.9864 41.241 70.4858C40.127 72.8816 39.9835 75.8038 39.5703 78.8329C39.3255 78.912 39.4347 78.8575 39.2913 78.9586C37.3516 78.5341 36.6708 76.721 35.9493 75.1646C34.1259 71.2299 33.7877 64.8949 35.3919 60.3664C35.8073 59.1938 37.6834 55.5041 36.9234 54.4209C36.5609 53.3417 35.3648 52.7161 34.6961 51.8909C33.8676 50.8706 33.0412 49.5275 32.4674 48.3491C30.9752 45.2823 30.2794 41.8384 28.7079 38.7373C27.9565 37.2548 26.6869 35.7542 25.6443 34.437C24.4903 32.9765 23.1972 31.9011 22.3016 30.136
"
  />
</svg>
